<mxfile host="app.diagrams.net" agent="Mozilla/5.0 (Windows NT 10.0; Win64; x64) AppleWebKit/537.36 (KHTML, like Gecko) Chrome/135.0.0.0 Safari/537.36" version="26.2.14">
  <diagram name="Page-1" id="rRXREN92COTW--sJTIDk">
    <mxGraphModel dx="872" dy="473" grid="1" gridSize="10" guides="1" tooltips="1" connect="1" arrows="1" fold="1" page="1" pageScale="1" pageWidth="850" pageHeight="1100" math="0" shadow="0">
      <root>
        <mxCell id="0" />
        <mxCell id="1" parent="0" />
        <mxCell id="A7O0k4JukA3mzkTsGUJ9-1" value="&lt;font style=&quot;font-size: 14px;&quot;&gt;System Comparison - Shufuti vs SharApu&lt;/font&gt;" style="text;html=1;align=center;verticalAlign=middle;whiteSpace=wrap;rounded=0;" vertex="1" parent="1">
          <mxGeometry x="20" y="30" width="380" height="30" as="geometry" />
        </mxCell>
        <mxCell id="A7O0k4JukA3mzkTsGUJ9-2" value="&lt;h1 style=&quot;margin-top: 0px;&quot;&gt;Logging In&lt;/h1&gt;&lt;p&gt;This is one of the key system comparisons between Shufuti and SharApu. In Shufuti, after logging into the system, the user is generally led to a job seeker profile. To get into the hirer profile, Shufuti needs to depend entirely on the registration system. However, in SharApu, this is much easier as a user only needs to register once.&amp;nbsp;&lt;/p&gt;" style="text;html=1;whiteSpace=wrap;overflow=hidden;rounded=0;" vertex="1" parent="1">
          <mxGeometry x="370" y="10" width="440" height="150" as="geometry" />
        </mxCell>
        <mxCell id="A7O0k4JukA3mzkTsGUJ9-3" value="Shufuti" style="text;html=1;align=center;verticalAlign=middle;whiteSpace=wrap;rounded=0;" vertex="1" parent="1">
          <mxGeometry x="40" y="240" width="60" height="30" as="geometry" />
        </mxCell>
        <mxCell id="A7O0k4JukA3mzkTsGUJ9-5" value="LogIn" style="rounded=1;whiteSpace=wrap;html=1;" vertex="1" parent="1">
          <mxGeometry x="150" y="220" width="120" height="60" as="geometry" />
        </mxCell>
        <mxCell id="A7O0k4JukA3mzkTsGUJ9-6" value="" style="endArrow=classic;html=1;rounded=0;" edge="1" parent="1">
          <mxGeometry width="50" height="50" relative="1" as="geometry">
            <mxPoint x="100" y="254.5" as="sourcePoint" />
            <mxPoint x="140" y="254.5" as="targetPoint" />
          </mxGeometry>
        </mxCell>
        <mxCell id="A7O0k4JukA3mzkTsGUJ9-7" value="Log in using Username and email address" style="text;html=1;align=center;verticalAlign=middle;whiteSpace=wrap;rounded=0;" vertex="1" parent="1">
          <mxGeometry x="130" y="290" width="160" height="50" as="geometry" />
        </mxCell>
        <mxCell id="A7O0k4JukA3mzkTsGUJ9-8" value="" style="endArrow=classic;html=1;rounded=0;" edge="1" parent="1">
          <mxGeometry width="50" height="50" relative="1" as="geometry">
            <mxPoint x="280" y="250" as="sourcePoint" />
            <mxPoint x="520" y="250" as="targetPoint" />
          </mxGeometry>
        </mxCell>
        <mxCell id="A7O0k4JukA3mzkTsGUJ9-9" value="Getting into the profile" style="text;html=1;align=center;verticalAlign=middle;whiteSpace=wrap;rounded=0;" vertex="1" parent="1">
          <mxGeometry x="310" y="210" width="180" height="30" as="geometry" />
        </mxCell>
        <mxCell id="A7O0k4JukA3mzkTsGUJ9-10" value="Profile" style="rounded=1;whiteSpace=wrap;html=1;" vertex="1" parent="1">
          <mxGeometry x="530" y="220" width="120" height="60" as="geometry" />
        </mxCell>
        <mxCell id="A7O0k4JukA3mzkTsGUJ9-11" value="" style="endArrow=classic;html=1;rounded=0;exitX=0.5;exitY=1;exitDx=0;exitDy=0;" edge="1" parent="1" source="A7O0k4JukA3mzkTsGUJ9-10">
          <mxGeometry width="50" height="50" relative="1" as="geometry">
            <mxPoint x="620" y="330" as="sourcePoint" />
            <mxPoint x="590" y="320" as="targetPoint" />
          </mxGeometry>
        </mxCell>
        <mxCell id="A7O0k4JukA3mzkTsGUJ9-12" value="Notice Section&lt;div&gt;(New Addition in Shufuti)&lt;/div&gt;" style="rounded=1;whiteSpace=wrap;html=1;" vertex="1" parent="1">
          <mxGeometry x="470" y="320" width="240" height="60" as="geometry" />
        </mxCell>
        <mxCell id="A7O0k4JukA3mzkTsGUJ9-13" value="" style="endArrow=classic;html=1;rounded=0;exitX=0.475;exitY=1.033;exitDx=0;exitDy=0;exitPerimeter=0;" edge="1" parent="1" source="A7O0k4JukA3mzkTsGUJ9-12">
          <mxGeometry width="50" height="50" relative="1" as="geometry">
            <mxPoint x="590" y="460" as="sourcePoint" />
            <mxPoint x="584" y="420" as="targetPoint" />
          </mxGeometry>
        </mxCell>
        <mxCell id="A7O0k4JukA3mzkTsGUJ9-14" value="" style="rounded=1;whiteSpace=wrap;html=1;" vertex="1" parent="1">
          <mxGeometry x="470" y="440" width="230" height="220" as="geometry" />
        </mxCell>
        <mxCell id="A7O0k4JukA3mzkTsGUJ9-15" value="To-do List" style="text;html=1;align=center;verticalAlign=middle;whiteSpace=wrap;rounded=0;" vertex="1" parent="1">
          <mxGeometry x="520" y="440" width="120" height="30" as="geometry" />
        </mxCell>
        <mxCell id="A7O0k4JukA3mzkTsGUJ9-16" value="1. Define&amp;nbsp;&lt;span style=&quot;white-space: pre;&quot;&gt;&#x9;&lt;/span&gt;the job you are interested in&amp;nbsp;&lt;div&gt;&lt;br&gt;&lt;div&gt;2. Set he job type you have experience in&lt;/div&gt;&lt;div&gt;&lt;br&gt;&lt;/div&gt;&lt;div&gt;3.Let&#39;s set up the skills&lt;/div&gt;&lt;/div&gt;" style="text;html=1;align=center;verticalAlign=middle;whiteSpace=wrap;rounded=0;" vertex="1" parent="1">
          <mxGeometry x="510" y="480" width="160" height="160" as="geometry" />
        </mxCell>
        <mxCell id="A7O0k4JukA3mzkTsGUJ9-17" value="New Message" style="rounded=1;whiteSpace=wrap;html=1;" vertex="1" parent="1">
          <mxGeometry x="730" y="320" width="90" height="50" as="geometry" />
        </mxCell>
        <mxCell id="A7O0k4JukA3mzkTsGUJ9-18" value="" style="endArrow=classic;html=1;rounded=0;exitX=-0.013;exitY=0.318;exitDx=0;exitDy=0;exitPerimeter=0;" edge="1" parent="1" source="A7O0k4JukA3mzkTsGUJ9-14">
          <mxGeometry width="50" height="50" relative="1" as="geometry">
            <mxPoint x="400" y="520" as="sourcePoint" />
            <mxPoint x="410" y="510" as="targetPoint" />
          </mxGeometry>
        </mxCell>
        <mxCell id="A7O0k4JukA3mzkTsGUJ9-19" value="User Settings Page &amp;gt; Interesting jobs" style="rounded=1;whiteSpace=wrap;html=1;" vertex="1" parent="1">
          <mxGeometry x="200" y="490" width="210" height="40" as="geometry" />
        </mxCell>
        <mxCell id="A7O0k4JukA3mzkTsGUJ9-21" value="" style="endArrow=classic;html=1;rounded=0;" edge="1" parent="1">
          <mxGeometry width="50" height="50" relative="1" as="geometry">
            <mxPoint x="470" y="559.5" as="sourcePoint" />
            <mxPoint x="400" y="559.5" as="targetPoint" />
          </mxGeometry>
        </mxCell>
        <mxCell id="A7O0k4JukA3mzkTsGUJ9-22" value="User Settings Page &amp;gt; Occupations Experienced" style="rounded=1;whiteSpace=wrap;html=1;" vertex="1" parent="1">
          <mxGeometry x="140" y="540" width="260" height="40" as="geometry" />
        </mxCell>
        <mxCell id="A7O0k4JukA3mzkTsGUJ9-23" value="" style="endArrow=classic;html=1;rounded=0;" edge="1" parent="1">
          <mxGeometry width="50" height="50" relative="1" as="geometry">
            <mxPoint x="470" y="610" as="sourcePoint" />
            <mxPoint x="390" y="610" as="targetPoint" />
          </mxGeometry>
        </mxCell>
        <mxCell id="A7O0k4JukA3mzkTsGUJ9-24" value="Users Settings Page &amp;gt; skill" style="rounded=1;whiteSpace=wrap;html=1;" vertex="1" parent="1">
          <mxGeometry x="170" y="590" width="220" height="40" as="geometry" />
        </mxCell>
      </root>
    </mxGraphModel>
  </diagram>
</mxfile>
